<svg xmlns="http://www.w3.org/2000/svg" viewBox="0 0 24 24" id="microsoft-store"><path d="M18.5 24a.526.526 0 0 1-.089-.008l-16.5-3A.5.5 0 0 1 1.5 20.5v-12a.5.5 0 0 1 .411-.492l16.5-3a.527.527 0 0 1 .227.011l3.5 1a.501.501 0 0 1 .362.481v16a.501.501 0 0 1-.363.481l-3.5 1A.487.487 0 0 1 18.5 24zm-16-3.917 15.975 2.905 3.025-.864V6.877l-3.025-.864L2.5 8.917v11.166z"></path><path d="M15 19a.493.493 0 0 1-.055-.003l-9-1A.5.5 0 0 1 5.5 17.5v-6a.5.5 0 0 1 .445-.497l9-1a.5.5 0 0 1 .556.498v8A.502.502 0 0 1 15 19zm-8.5-1.948 8 .889v-6.883l-8 .889v5.105z"></path><path d="M10 18a.5.5 0 0 1-.5-.5v-6a.5.5 0 0 1 1 0v6a.5.5 0 0 1-.5.5z"></path><path d="M15 15H6a.5.5 0 0 1 0-1h9a.5.5 0 0 1 0 1zM7 6a.5.5 0 0 1-.5-.5v-2C6.5 1.845 7.938 0 10 0c2.061 0 3.5 1.028 3.5 2.5v2a.5.5 0 0 1-1 0v-2c0-.883-1.028-1.5-2.5-1.5-1.549 0-2.5 1.456-2.5 2.5v2A.5.5 0 0 1 7 6z"></path><path d="M10 5.5a.5.5 0 0 1-.5-.5c0-.365.06-2.219 1.243-2.929a.5.5 0 1 1 .515.857C10.737 3.241 10.5 4.221 10.5 5a.5.5 0 0 1-.5.5zM15 4.5l-.037-.001a.5.5 0 0 1-.462-.535c.042-.596-.013-1.262-.118-1.478A.5.5 0 0 1 14.5 1.5c.223 0 .433.094.592.264.479.516.444 1.761.407 2.272A.501.501 0 0 1 15 4.5z"></path></svg>